<svg enable-background="new 0 0 335.4 87" viewBox="0 0 335.4 87" xmlns="http://www.w3.org/2000/svg"><g fill="#f5f0f6"><path d="m44.8 3c-22.1 0-40 17.9-40 40 0 10.2 3.8 19.4 10 26.5 1.6-1.5 3.9-3.7 7-6.6 10-9.4 15.7-14.8 15.9-15s1.8-2 2.2-2.2c-3.2-3.3-6.1-6.1-6.1-6.1s-.1 0-.3.2c-.5.4-1 .7-1.6.8-.3 0-1 .1-1.3 0-1-.2-1.9-.8-2.3-1.7-.3-.5-.4-.9-.3-1.5 0-.7.2-1.2.5-1.8.1-.2.9-1 5.8-5.9 3.7-3.7 5.7-5.7 5.9-5.8.4-.3.8-.5 1.3-.6.3-.1 1-.1 1.3 0 .7.1 1.2.4 1.6.9.7.7 1.1 1.7.9 2.8-.1.5-.3 1-.5 1.4l-.1.2 13.8 13.9 2 2 .2-.1c.4-.3.7-.4 1.2-.5.3-.1 1-.1 1.3 0 1.3.3 2.3 1.3 2.6 2.6.1.3 0 1 0 1.3-.1.4-.3.8-.5 1.2-.1.2-1.1 1.2-5.8 5.9-3.3 3.3-5.7 5.8-5.9 5.8-.2.2-.6.4-.9.5-.5-.2-1.1-.2-1.5-.2-.8-.1-1.3-.4-1.9-1-1.2-1.2-1.2-3.3 0-4.5.1-.1.2-.2.2-.3 0 0-2.5-2.6-5.6-5.6-.5.5-2 1.7-2.1 1.8 0 .1-.7.8-1.5 1.7-2.3 2.4-14.7 15.6-20.1 21.4 6.8 5.3 15.3 8.5 24.6 8.5 22.1 0 40-17.9 40-40 0-22.1-17.9-40-40-40z"/><path d="m107.5 27h9.4v2.9h-6v3h5.1v2.8h-5.1v3.4h6.2v2.9h-9.6z"/><path d="m120.1 27h9.4v2.9h-6v3h5.1v2.8h-5.1v3.4h6.2v2.9h-9.6z"/><path d="m132.6 27h3.5l3.9 7.5 1.5 3.3h.1c-.2-1.6-.4-3.7-.4-5.5v-5.3h3.2v15h-3.5l-3.9-7.5-1.5-3.3h-.1c.2 1.7.4 3.7.4 5.4v5.4h-3.2z"/><path d="m147.9 27h3.6l2.5 6.7.9 2.6h.1l.9-2.6 2.4-6.7h3.6v15h-3.2v-5.5c0-1.5.3-3.7.4-5.1h-.1l-1.2 3.5-2.3 5.8h-1.4l-2.3-5.8-1.2-3.5h-.1c.2 1.4.4 3.6.4 5.1v5.5h-3.1v-15z"/><path d="m172.5 38.5h-4.6l-.9 3.5h-3.4l4.7-15h4l4.7 15h-3.6zm-.7-2.7-.4-1.4c-.4-1.5-.8-3.3-1.2-4.8h-.1c-.3 1.6-.8 3.3-1.2 4.8l-.4 1.4z"/><path d="m185.6 38.5h-4.6l-.9 3.6h-3.4l4.7-15h4l4.7 15h-3.6zm-.7-2.7-.4-1.4c-.4-1.5-.8-3.3-1.2-4.8h-.1c-.3 1.6-.8 3.3-1.2 4.8l-.4 1.4z"/><path d="m191.7 27h3.4v12.1h5.9v2.9h-9.3z"/><path d="m215.4 38.5h-4.6l-.9 3.6h-3.4l4.7-15h4l4.7 15h-3.6zm-.7-2.7-.4-1.4c-.4-1.5-.8-3.3-1.2-4.8h-.1c-.3 1.6-.8 3.3-1.2 4.8l-.4 1.4z"/><path d="m221.5 27h3.5l3.9 7.5 1.5 3.3h.1c-.2-1.6-.4-3.7-.4-5.5v-5.3h3.2v15h-3.5l-3.9-7.5-1.5-3.3h-.1c.2 1.7.4 3.7.4 5.4v5.4h-3.2z"/><path d="m236.7 27h4.2c4.6 0 7.5 2.3 7.5 7.4s-2.9 7.6-7.3 7.6h-4.4zm4.1 12.3c2.5 0 4.3-1.2 4.3-4.8s-1.7-4.7-4.3-4.7h-.6v9.5z"/><path d="m251.3 27h9.4v2.9h-6v3h5.1v2.8h-5.1v3.4h6.2v2.9h-9.6z"/><path d="m272 42-2.9-5.4h-1.8v5.4h-3.4v-15h5.4c3.2 0 5.8 1.1 5.8 4.7 0 2.2-1.1 3.6-2.7 4.3l3.4 6zm-4.7-8.1h1.7c1.8 0 2.7-.8 2.7-2.2s-1-2-2.7-2h-1.7z"/><path d="m278 27h3.6l2.5 6.7.9 2.6h.1l.9-2.6 2.4-6.7h3.6v15h-3.2v-5.5c0-1.5.3-3.7.4-5.1h-.1l-1.2 3.5-2.3 5.8h-1.4l-2.3-5.8-1.2-3.5h-.1c.2 1.4.4 3.6.4 5.1v5.5h-3z"/><path d="m302.6 38.5h-4.6l-.9 3.6h-3.4l4.7-15h4l4.7 15h-3.6zm-.7-2.7-.4-1.4c-.4-1.5-.8-3.3-1.2-4.8h-.1c-.3 1.6-.8 3.3-1.2 4.8l-.4 1.4z"/><path d="m315.7 38.5h-4.6l-.9 3.6h-3.4l4.7-15h4l4.7 15h-3.6zm-.7-2.7-.4-1.4c-.4-1.5-.8-3.3-1.2-4.8h-.1c-.3 1.6-.8 3.3-1.2 4.8l-.4 1.4z"/><path d="m321.8 27h3.4v12.1h5.9v2.9h-9.3z"/><path d="m108.3 61h-1v-.7h1.1l.2-1.9h-1.1v-.8h1.2l.3-2.4h.7l-.3 2.4h1.7l.3-2.4h.7l-.3 2.4h1.1v.8h-1.1l-.2 1.9h1.1v.7h-1.2l-.3 2.7h-.7l.3-2.7h-1.8l-.3 2.7h-.7zm2.5-.8.2-1.9h-1.7l-.2 1.9z"/><path d="m114.3 62.8h1.9v-6.1h-1.5v-.7c.8-.1 1.3-.3 1.8-.6h.8v7.4h1.7v.9h-4.7z"/><path d="m122.3 55.1h1.2l1.4 4.6c.3 1 .5 1.8.8 2.8h.1c.3-1 .5-1.8.8-2.8l1.4-4.6h1.1l-2.7 8.5h-1.4z"/><path d="m129.6 59.3c0-2.7 1.5-4.4 3.6-4.4s3.7 1.7 3.7 4.4-1.5 4.5-3.7 4.5-3.6-1.7-3.6-4.5zm6.1 0c0-2.1-1-3.4-2.5-3.4s-2.5 1.3-2.5 3.4 1 3.5 2.5 3.5 2.5-1.3 2.5-3.5z"/><path d="m138.2 59.3c0-2.7 1.5-4.4 3.6-4.4s3.7 1.7 3.7 4.4-1.5 4.5-3.7 4.5c-2.1 0-3.6-1.7-3.6-4.5zm6.1 0c0-2.1-1-3.4-2.5-3.4s-2.5 1.3-2.5 3.4 1 3.5 2.5 3.5 2.5-1.3 2.5-3.5z"/><path d="m147.3 55.1h2.7c1.7 0 3 .6 3 2.4 0 1.3-.8 2.1-1.9 2.4l2.2 3.7h-1.3l-2.1-3.6h-1.5v3.6h-1.1zm2.5 4.1c1.3 0 2.1-.5 2.1-1.7 0-1.1-.7-1.5-2.1-1.5h-1.4v3.2z"/><path d="m159.1 56h-2.6v-.9h6.2v.9h-2.6v7.6h-1.1v-7.6z"/><path d="m163.4 55.1h1.1l.9 4.6c.2.9.3 1.8.5 2.8h.1c.2-.9.4-1.8.6-2.8l1.2-4.6h1l1.2 4.6c.2.9.4 1.8.6 2.8h.1c.2-.9.3-1.8.5-2.8l.9-4.6h1l-1.8 8.5h-1.3l-1.3-5.1c-.2-.7-.3-1.3-.4-1.9h-.1c-.1.7-.3 1.3-.4 1.9l-1.3 5.1h-1.3z"/><path d="m174.5 55.1h4.9v.9h-3.8v2.7h3.2v.9h-3.2v3.1h4v.9h-5v-8.5z"/><path d="m181.3 55.1h4.9v.9h-3.8v2.7h3.2v.9h-3.2v3.1h4v.9h-5v-8.5z"/><path d="m188.2 55.1h2.1c2.6 0 4 1.5 4 4.2s-1.4 4.3-4 4.3h-2.2v-8.5zm2 7.7c2 0 3-1.3 3-3.4s-1-3.3-3-3.3h-1v6.8h1z"/><path d="m196.2 55.1h4.9v.9h-3.8v2.7h3.2v.9h-3.2v3.1h4v.9h-5v-8.5z"/><path d="m203 55.1h1.1v3.6h4v-3.6h1.1v8.5h-1.1v-4h-4v4h-1.1z"/><path d="m213.3 55.1h1.2l2.9 8.5h-1.2l-.8-2.6h-3.1l-.8 2.6h-1.1zm-.7 5.1h2.6l-.4-1.3c-.3-.9-.6-1.9-.9-2.9h-.1c-.3 1-.5 1.9-.8 2.9z"/><path d="m218.6 55.1h1.1l3.1 5.4.9 1.8h.1c-.1-.9-.1-1.8-.1-2.7v-4.4h1v8.5h-1.1l-3.1-5.4-.9-1.8h-.1c.1.9.1 1.8.1 2.7v4.5h-1z"/><path d="m227 55.1h2.1c2.6 0 4 1.5 4 4.2s-1.4 4.3-4 4.3h-2.1zm2.1 7.7c2 0 3-1.3 3-3.4s-1-3.3-3-3.3h-1v6.8h1z"/><path d="m234.4 62.5.6-.8c.6.6 1.5 1.1 2.4 1.1 1.1 0 1.8-.6 1.8-1.4 0-.9-.6-1.1-1.4-1.5l-1.2-.5c-.8-.3-1.7-.9-1.7-2.2s1.1-2.3 2.7-2.3c1 0 1.9.4 2.5 1.1l-.6.7c-.5-.5-1.1-.8-1.9-.8-.9 0-1.6.5-1.6 1.2 0 .8.7 1.1 1.4 1.4l1.2.5c1 .4 1.8 1 1.8 2.3 0 1.4-1.1 2.4-2.9 2.4-1.3.1-2.4-.4-3.1-1.2z"/><path d="m246.3 55.1h1.2l2.9 8.5h-1.2l-.8-2.6h-3.1l-.8 2.6h-1.1zm-.7 5.1h2.6l-.4-1.3c-.3-.9-.6-1.9-.9-2.9h-.1c-.3 1-.5 1.9-.8 2.9z"/><path d="m251.6 55.1h2.7c1.7 0 3 .6 3 2.4 0 1.3-.8 2.1-1.9 2.4l2.2 3.7h-1.2l-2.1-3.6h-1.5v3.6h-1.1v-8.5zm2.5 4.1c1.3 0 2.1-.5 2.1-1.7 0-1.1-.7-1.5-2.1-1.5h-1.4v3.2z"/><path d="m260.6 56h-2.6v-.9h6.2v.9h-2.6v7.6h-1.1v-7.6z"/><path d="m265.8 55.1h1.1v8.5h-1.1z"/><path d="m269.2 55.1h1.1v4.3l3.5-4.3h1.2l-2.7 3.2 3.1 5.3h-1.2l-2.5-4.4-1.5 1.7v2.7h-1.1v-8.5z"/><path d="m276.7 55.1h4.9v.9h-3.8v2.7h3.2v.9h-3.2v3.1h4v.9h-5v-8.5z"/><path d="m283.6 55.1h1.1v7.6h3.7v.9h-4.8z"/><path d="m289.9 55.1h4.9v.9h-3.8v2.7h3.2v.9h-3.2v3.1h4v.9h-5v-8.5z"/><path d="m296.8 55.1h1.1l3.1 5.4.9 1.8h.1c-.1-.9-.1-1.8-.1-2.7v-4.4h1v8.5h-1.1l-3.1-5.4-.9-1.8h-.1c.1.9.1 1.8.1 2.7v4.5h-1z"/></g></svg>